<svg width="26" height="26" viewBox="0 0 26 26" fill="none" xmlns="http://www.w3.org/2000/svg">
<path fill-rule="evenodd" clip-rule="evenodd" d="M8.08725 1.15548C9.358 1.09698 9.76316 1.08398 13.0002 1.08398C16.2372 1.08398 16.6423 1.09807 17.912 1.15548C19.1817 1.2129 20.0483 1.41548 20.8067 1.70907C21.6007 2.00915 22.3212 2.47823 22.917 3.0849C23.5237 3.67965 23.9917 4.39898 24.2907 5.19415C24.5853 5.95248 24.7868 6.81915 24.8453 8.08665C24.9038 9.35957 24.9168 9.76473 24.9168 13.0007C24.9168 16.2377 24.9027 16.6428 24.8453 17.9136C24.7879 19.1811 24.5853 20.0477 24.2907 20.8061C23.9917 21.6013 23.5229 22.3219 22.917 22.9175C22.3212 23.5242 21.6007 23.9922 20.8067 24.2912C20.0483 24.5858 19.1817 24.7873 17.9142 24.8458C16.6423 24.9043 16.2372 24.9173 13.0002 24.9173C9.76316 24.9173 9.358 24.9032 8.08725 24.8458C6.81975 24.7884 5.95308 24.5858 5.19475 24.2912C4.39949 23.9921 3.67897 23.5233 3.08333 22.9175C2.47707 22.3224 2.00792 21.6022 1.70858 20.8072C1.415 20.0488 1.2135 19.1822 1.155 17.9146C1.0965 16.6417 1.0835 16.2366 1.0835 13.0007C1.0835 9.76365 1.09758 9.35849 1.155 8.08882C1.21241 6.81915 1.415 5.95248 1.70858 5.19415C2.00836 4.39907 2.47787 3.67891 3.08441 3.08382C3.67921 2.47769 4.39901 2.00855 5.19366 1.70907C5.952 1.41548 6.81866 1.21398 8.08616 1.15548H8.08725ZM17.8156 3.30048C16.5589 3.24307 16.1819 3.23115 13.0002 3.23115C9.81841 3.23115 9.44141 3.24307 8.18475 3.30048C7.02233 3.35357 6.39183 3.54748 5.9715 3.71107C5.41575 3.92773 5.01816 4.18448 4.60108 4.60157C4.20571 4.98621 3.90144 5.45446 3.71058 5.97198C3.547 6.39232 3.35308 7.02282 3.3 8.18523C3.24258 9.4419 3.23066 9.8189 3.23066 13.0007C3.23066 16.1824 3.24258 16.5594 3.3 17.8161C3.35308 18.9785 3.547 19.609 3.71058 20.0293C3.90125 20.5461 4.20566 21.0152 4.60108 21.3997C4.98566 21.7952 5.45475 22.0996 5.9715 22.2902C6.39183 22.4538 7.02233 22.6477 8.18475 22.7008C9.44141 22.7582 9.81733 22.7702 13.0002 22.7702C16.183 22.7702 16.5589 22.7582 17.8156 22.7008C18.978 22.6477 19.6085 22.4538 20.0288 22.2902C20.5846 22.0736 20.9822 21.8168 21.3992 21.3997C21.7947 21.0152 22.0991 20.5461 22.2897 20.0293C22.4533 19.609 22.6472 18.9785 22.7003 17.8161C22.7577 16.5594 22.7697 16.1824 22.7697 13.0007C22.7697 9.8189 22.7577 9.4419 22.7003 8.18523C22.6472 7.02282 22.4533 6.39232 22.2897 5.97198C22.0731 5.41623 21.8163 5.01865 21.3992 4.60157C21.0146 4.20623 20.5463 3.90196 20.0288 3.71107C19.6085 3.54748 18.978 3.35357 17.8156 3.30048ZM11.4781 16.6742C12.3281 17.0281 13.2747 17.0758 14.156 16.8094C15.0373 16.5429 15.7988 15.9786 16.3104 15.2131C16.822 14.4475 17.0519 13.5281 16.9609 12.6118C16.8699 11.6956 16.4636 10.8394 15.8114 10.1894C15.3957 9.77392 14.893 9.45578 14.3395 9.25789C13.7861 9.06001 13.1956 8.98729 12.6107 9.04498C12.0258 9.10268 11.4609 9.28934 10.9568 9.59154C10.4527 9.89374 10.0218 10.304 9.69524 10.7927C9.36868 11.2814 9.15453 11.8364 9.06822 12.4178C8.98191 12.9992 9.02558 13.5925 9.19608 14.155C9.36658 14.7175 9.65968 15.2351 10.0543 15.6708C10.4489 16.1064 10.9351 16.4491 11.4781 16.6742ZM8.669 8.66948C9.23777 8.10071 9.91301 7.64953 10.6562 7.34171C11.3993 7.03389 12.1958 6.87546 13.0002 6.87546C13.8045 6.87546 14.601 7.03389 15.3442 7.34171C16.0873 7.64953 16.7626 8.10071 17.3313 8.66948C17.9001 9.23826 18.3513 9.9135 18.6591 10.6566C18.9669 11.3998 19.1254 12.1963 19.1254 13.0007C19.1254 13.805 18.9669 14.6015 18.6591 15.3447C18.3513 16.0878 17.9001 16.763 17.3313 17.3318C16.1826 18.4805 14.6247 19.1258 13.0002 19.1258C11.3757 19.1258 9.81769 18.4805 8.669 17.3318C7.5203 16.1831 6.87497 14.6252 6.87497 13.0007C6.87497 11.3761 7.5203 9.81818 8.669 8.66948ZM20.4838 7.78765C20.6248 7.65469 20.7376 7.49481 20.8157 7.31746C20.8937 7.14011 20.9354 6.9489 20.9382 6.75516C20.941 6.56142 20.9049 6.36908 20.8321 6.18953C20.7593 6.00998 20.6511 5.84687 20.5141 5.70986C20.3771 5.57285 20.214 5.46472 20.0345 5.39188C19.8549 5.31904 19.6626 5.28296 19.4688 5.28578C19.2751 5.28861 19.0839 5.33028 18.9065 5.40832C18.7292 5.48637 18.5693 5.5992 18.4363 5.74015C18.1777 6.01427 18.0362 6.37837 18.0417 6.75516C18.0472 7.13195 18.1993 7.49177 18.4657 7.75823C18.7322 8.02469 19.092 8.17682 19.4688 8.18231C19.8456 8.1878 20.2097 8.04623 20.4838 7.78765Z" fill="#AA8453"/>
</svg>
