<svg width="30" height="30" viewBox="0 0 30 30" fill="none" xmlns="http://www.w3.org/2000/svg">
<path d="M26.875 5H24.1667V6.66667H26.6667V25H3.33334V6.66667H5.83334V5H3.12501C2.9302 5.00326 2.73795 5.04486 2.55923 5.12242C2.38051 5.19999 2.21881 5.31201 2.08339 5.45208C1.94797 5.59214 1.84146 5.75752 1.76996 5.93875C1.69846 6.11999 1.66336 6.31353 1.66667 6.50833V25.1583C1.66336 25.3531 1.69846 25.5467 1.76996 25.7279C1.84146 25.9092 1.94797 26.0745 2.08339 26.2146C2.21881 26.3547 2.38051 26.4667 2.55923 26.5442C2.73795 26.6218 2.9302 26.6634 3.12501 26.6667H26.875C27.0698 26.6634 27.2621 26.6218 27.4408 26.5442C27.6195 26.4667 27.7812 26.3547 27.9166 26.2146C28.052 26.0745 28.1585 25.9092 28.23 25.7279C28.3015 25.5467 28.3366 25.3531 28.3333 25.1583V6.50833C28.3366 6.31353 28.3015 6.11999 28.23 5.93875C28.1585 5.75752 28.052 5.59214 27.9166 5.45208C27.7812 5.31201 27.6195 5.19999 27.4408 5.12242C27.2621 5.04486 27.0698 5.00326 26.875 5Z" fill="#353653"/>
<path d="M6.66666 11.668H8.33332V13.3346H6.66666V11.668Z" fill="#353653"/>
<path d="M11.6667 11.668H13.3333V13.3346H11.6667V11.668Z" fill="#353653"/>
<path d="M16.6667 11.668H18.3333V13.3346H16.6667V11.668Z" fill="#353653"/>
<path d="M21.6667 11.668H23.3333V13.3346H21.6667V11.668Z" fill="#353653"/>
<path d="M6.66666 15.832H8.33332V17.4987H6.66666V15.832Z" fill="#353653"/>
<path d="M11.6667 15.832H13.3333V17.4987H11.6667V15.832Z" fill="#353653"/>
<path d="M16.6667 15.832H18.3333V17.4987H16.6667V15.832Z" fill="#353653"/>
<path d="M21.6667 15.832H23.3333V17.4987H21.6667V15.832Z" fill="#353653"/>
<path d="M6.66666 20H8.33332V21.6667H6.66666V20Z" fill="#353653"/>
<path d="M11.6667 20H13.3333V21.6667H11.6667V20Z" fill="#353653"/>
<path d="M16.6667 20H18.3333V21.6667H16.6667V20Z" fill="#353653"/>
<path d="M21.6667 20H23.3333V21.6667H21.6667V20Z" fill="#353653"/>
<path d="M8.33333 8.33464C8.55435 8.33464 8.76631 8.24684 8.92259 8.09056C9.07887 7.93428 9.16667 7.72232 9.16667 7.5013V2.5013C9.16667 2.28029 9.07887 2.06833 8.92259 1.91205C8.76631 1.75577 8.55435 1.66797 8.33333 1.66797C8.11232 1.66797 7.90036 1.75577 7.74408 1.91205C7.5878 2.06833 7.5 2.28029 7.5 2.5013V7.5013C7.5 7.72232 7.5878 7.93428 7.74408 8.09056C7.90036 8.24684 8.11232 8.33464 8.33333 8.33464Z" fill="#353653"/>
<path d="M21.6667 8.33464C21.8877 8.33464 22.0997 8.24684 22.2559 8.09056C22.4122 7.93428 22.5 7.72232 22.5 7.5013V2.5013C22.5 2.28029 22.4122 2.06833 22.2559 1.91205C22.0997 1.75577 21.8877 1.66797 21.6667 1.66797C21.4457 1.66797 21.2337 1.75577 21.0774 1.91205C20.9211 2.06833 20.8333 2.28029 20.8333 2.5013V7.5013C20.8333 7.72232 20.9211 7.93428 21.0774 8.09056C21.2337 8.24684 21.4457 8.33464 21.6667 8.33464Z" fill="#353653"/>
<path d="M10.8333 5H19.1667V6.66667H10.8333V5Z" fill="#353653"/>
</svg>
