<svg width="22" height="26" viewBox="0 0 22 26" fill="none" xmlns="http://www.w3.org/2000/svg">
<path d="M16.4447 8.33313V6.03868C16.4447 5.32371 16.3038 4.61573 16.0302 3.95518C15.7566 3.29463 15.3556 2.69444 14.85 2.18888C14.3445 1.68332 13.7443 1.28228 13.0837 1.00867C12.4232 0.735063 11.7152 0.594238 11.0002 0.594238C10.2852 0.594238 9.57727 0.735063 8.91672 1.00867C8.25617 1.28228 7.65598 1.68332 7.15041 2.18888C6.64485 2.69444 6.24382 3.29463 5.97021 3.95518C5.6966 4.61573 5.55577 5.32371 5.55577 6.03868V11.4831C5.55577 11.6894 5.63772 11.8872 5.78358 12.0331C5.92944 12.179 6.12727 12.2609 6.33355 12.2609C6.53983 12.2609 6.73766 12.179 6.88352 12.0331C7.02938 11.8872 7.11133 11.6894 7.11133 11.4831V9.88868H13.3336V8.33313H7.11133V6.03868C7.11133 5.00729 7.52105 4.01813 8.25036 3.28882C8.97967 2.55952 9.96882 2.14979 11.0002 2.14979C12.0316 2.14979 13.0208 2.55952 13.7501 3.28882C14.4794 4.01813 14.8891 5.00729 14.8891 6.03868V11.4442C14.8891 11.6505 14.971 11.8483 15.1169 11.9942C15.2628 12.1401 15.4606 12.222 15.6669 12.222C15.8732 12.222 16.071 12.1401 16.2169 11.9942C16.3627 11.8483 16.4447 11.6505 16.4447 11.4442V9.88868H20.3336V23.8887H1.66688V9.88868H4.00022V8.33313H0.111328V23.9587C0.111328 24.3527 0.267841 24.7305 0.546437 25.0091C0.825033 25.2877 1.20289 25.4442 1.59688 25.4442H20.4036C20.7975 25.4442 21.1754 25.2877 21.454 25.0091C21.7326 24.7305 21.8891 24.3527 21.8891 23.9587V8.33313H16.4447Z" fill="#353653"/>
</svg>
