<svg width="37" height="44" viewBox="0 0 37 44" fill="none" xmlns="http://www.w3.org/2000/svg">
<path d="M27.75 13.9431V9.98566C27.75 8.75249 27.5107 7.5314 27.0459 6.39209C26.581 5.25279 25.8997 4.2176 25.0407 3.34561C24.1818 2.47363 23.1621 1.78193 22.0398 1.31002C20.9176 0.838106 19.7147 0.595215 18.5 0.595215C17.2853 0.595215 16.0824 0.838106 14.9602 1.31002C13.8379 1.78193 12.8182 2.47363 11.9593 3.34561C11.1003 4.2176 10.419 5.25279 9.95411 6.39209C9.48926 7.5314 9.25 8.75249 9.25 9.98566V19.3761C9.25 19.7319 9.38922 20.0731 9.63704 20.3247C9.88485 20.5763 10.221 20.7176 10.5714 20.7176C10.9219 20.7176 11.258 20.5763 11.5058 20.3247C11.7536 20.0731 11.8929 19.7319 11.8929 19.3761V16.6261H22.4643V13.9431H11.8929V9.98566C11.8929 8.20673 12.589 6.50066 13.828 5.24277C15.0671 3.98488 16.7477 3.2782 18.5 3.2782C20.2523 3.2782 21.9329 3.98488 23.172 5.24277C24.411 6.50066 25.1071 8.20673 25.1071 9.98566V19.309C25.1071 19.6648 25.2464 20.006 25.4942 20.2576C25.742 20.5092 26.0781 20.6505 26.4286 20.6505C26.779 20.6505 27.1151 20.5092 27.363 20.2576C27.6108 20.006 27.75 19.6648 27.75 19.309V16.6261H34.3571V40.7729H2.64286V16.6261H6.60714V13.9431H0V40.8937C0 41.5732 0.265913 42.2249 0.739241 42.7054C1.21257 43.186 1.85454 43.4559 2.52393 43.4559H34.4761C35.1455 43.4559 35.7874 43.186 36.2608 42.7054C36.7341 42.2249 37 41.5732 37 40.8937V13.9431H27.75Z" fill="#353653"/>
</svg>
