<svg width="9" height="8" viewBox="0 0 9 8" fill="none" xmlns="http://www.w3.org/2000/svg">
<path d="M6.97016 0.970475C7.11103 0.836364 7.29848 0.762222 7.49298 0.763693C7.68747 0.765165 7.87378 0.842135 8.0126 0.978363C8.15143 1.11459 8.2319 1.29942 8.23704 1.49385C8.24218 1.68828 8.17159 1.8771 8.04016 2.02047L4.05016 7.01048C3.98155 7.08437 3.89874 7.14368 3.80669 7.18484C3.71464 7.22601 3.61523 7.24818 3.51441 7.25005C3.41359 7.25192 3.31343 7.23344 3.21991 7.19571C3.1264 7.15798 3.04146 7.10178 2.97016 7.03047L0.324158 4.38447C0.250471 4.31581 0.191369 4.23301 0.150377 4.14101C0.109385 4.04901 0.0873427 3.9497 0.0855659 3.849C0.0837892 3.74829 0.102314 3.64827 0.140035 3.55488C0.177756 3.46149 0.233901 3.37666 0.305119 3.30544C0.376338 3.23422 0.461172 3.17807 0.55456 3.14035C0.647948 3.10263 0.747977 3.08411 0.84868 3.08588C0.949383 3.08766 1.0487 3.1097 1.1407 3.15069C1.2327 3.19169 1.3155 3.25079 1.38416 3.32447L3.47816 5.41747L6.95116 0.992475C6.95741 0.984776 6.96409 0.977431 6.97116 0.970475H6.97016Z" fill="#F2305F"/>
</svg>
