<svg width="22" height="24" viewBox="0 0 22 24" fill="none" xmlns="http://www.w3.org/2000/svg">
<path d="M1.66699 22.6668V21.3335C1.66699 18.8581 2.65032 16.4842 4.40066 14.7338C6.151 12.9835 8.52497 12.0002 11.0003 12.0002V12.0002C13.4757 12.0002 15.8496 12.9835 17.6 14.7338C19.3503 16.4842 20.3337 18.8581 20.3337 21.3335V22.6668H1.66699ZM11.0003 12.0002C12.4148 12.0002 13.7714 11.4383 14.7716 10.4381C15.7718 9.43787 16.3337 8.08132 16.3337 6.66683C16.3337 5.25234 15.7718 3.89579 14.7716 2.89559C13.7714 1.8954 12.4148 1.3335 11.0003 1.3335C9.58584 1.3335 8.22928 1.8954 7.22909 2.89559C6.2289 3.89579 5.66699 5.25234 5.66699 6.66683C5.66699 8.08132 6.2289 9.43787 7.22909 10.4381C8.22928 11.4383 9.58584 12.0002 11.0003 12.0002V12.0002Z" stroke="#F2305F" stroke-width="1.5" stroke-linecap="round" stroke-linejoin="round"/>
<path d="M8 18C8 16.3431 9.34315 15 11 15C12.6569 15 14 16.3431 14 18V21H8V18Z" fill="#D9D9D9"/>
</svg>
