<svg width="24" height="24" viewBox="0 0 24 24" fill="none" xmlns="http://www.w3.org/2000/svg">
<path d="M11.9998 23.1998C14.9702 23.1998 17.819 22.0198 19.9194 19.9194C22.0198 17.819 23.1998 14.9702 23.1998 11.9998C23.1998 9.02938 22.0198 6.18062 19.9194 4.08021C17.819 1.9798 14.9702 0.799805 11.9998 0.799805C9.02938 0.799805 6.18062 1.9798 4.08021 4.08021C1.9798 6.18062 0.799805 9.02938 0.799805 11.9998C0.799805 14.9702 1.9798 17.819 4.08021 19.9194C6.18062 22.0198 9.02938 23.1998 11.9998 23.1998ZM11.9998 2.1998C12.9196 2.1998 13.9696 3.0258 14.8306 4.871C15.1344 5.5234 15.399 6.2738 15.6132 7.0998H8.3864C8.6006 6.2738 8.8652 5.5234 9.1704 4.871C10.0286 3.0258 11.0786 2.1998 11.9998 2.1998ZM7.9006 4.2788C7.4872 5.18434 7.16682 6.12953 6.9444 7.0998H3.5102C4.69214 5.05702 6.56952 3.50761 8.7994 2.7346C8.462 3.1966 8.161 3.7202 7.9006 4.2788ZM6.6686 8.4998C6.48741 9.65762 6.39754 10.8279 6.3998 11.9998C6.3998 13.2178 6.4936 14.3966 6.67 15.4998H2.8438C2.41684 14.3824 2.19856 13.196 2.1998 11.9998C2.1998 10.7678 2.428 9.5862 2.8438 8.4998H6.67H6.6686ZM6.9444 16.8998C7.1908 17.94 7.5142 18.8906 7.9006 19.7208C8.161 20.2794 8.462 20.803 8.7994 21.265C6.56952 20.492 4.69214 18.9426 3.5102 16.8998H6.9458H6.9444ZM8.3864 16.8998H15.6132C15.4203 17.6651 15.1579 18.4111 14.8292 19.1286C13.971 20.9738 12.921 21.7998 11.9998 21.7998C11.08 21.7998 10.03 20.9738 9.169 19.1286C8.84129 18.411 8.5798 17.665 8.3878 16.8998H8.3864ZM15.9114 15.4998H8.0882C7.89366 14.3433 7.79719 13.1725 7.7998 11.9998C7.7998 10.7636 7.902 9.5848 8.0882 8.4998H15.9114C16.0976 9.5848 16.1998 10.7636 16.1998 11.9998C16.1998 13.236 16.0976 14.4148 15.9114 15.4998ZM17.0552 16.8998H20.4894C19.3075 18.9426 17.4301 20.492 15.2002 21.265C15.5376 20.803 15.8386 20.2794 16.099 19.7208C16.4854 18.8906 16.8088 17.94 17.0552 16.8998ZM21.1572 15.4998H17.3296C17.506 14.3966 17.5998 13.2178 17.5998 11.9998C17.5998 10.7818 17.506 9.603 17.3296 8.4998H21.1558C21.5716 9.5862 21.7998 10.7678 21.7998 11.9998C21.7998 13.2318 21.5716 14.4134 21.1558 15.4998H21.1572ZM15.2002 2.7346C17.4302 3.5075 19.3076 5.05694 20.4894 7.0998H17.0538C16.8314 6.12953 16.511 5.18435 16.0976 4.2788C15.8483 3.73639 15.5473 3.21926 15.1988 2.7346H15.2002Z" fill="#F2305F"/>
<rect x="10" y="10" width="4" height="4" fill="#999999"/>
</svg>
