<svg width="24" height="24" viewBox="0 0 24 24" fill="none" xmlns="http://www.w3.org/2000/svg">
<path d="M12 1.33398C9.89038 1.33398 7.82809 1.95957 6.07396 3.13164C4.31984 4.30371 2.95267 5.96962 2.14533 7.91869C1.338 9.86777 1.12676 12.0125 1.53834 14.0816C1.94991 16.1507 2.96581 18.0514 4.45757 19.5431C5.94933 21.0349 7.84995 22.0508 9.91908 22.4624C11.9882 22.8739 14.1329 22.6627 16.082 21.8554C18.0311 21.048 19.697 19.6809 20.8691 17.9267C22.0411 16.1726 22.6667 14.1103 22.6667 12.0007C22.6667 9.17167 21.5429 6.45857 19.5425 4.45818C17.5421 2.45779 14.829 1.33398 12 1.33398ZM12 21.334C10.1541 21.334 8.34958 20.7866 6.81472 19.761C5.27986 18.7355 4.08359 17.2778 3.37717 15.5724C2.67075 13.8669 2.48592 11.9903 2.84605 10.1798C3.20618 8.36932 4.09509 6.70628 5.40038 5.40099C6.70567 4.0957 8.36871 3.20678 10.1792 2.84666C11.9897 2.48653 13.8663 2.67136 15.5718 3.37778C17.2772 4.08419 18.7349 5.28047 19.7604 6.81533C20.786 8.35019 21.3334 10.1547 21.3334 12.0007C21.3334 14.476 20.35 16.85 18.5997 18.6003C16.8494 20.3507 14.4754 21.334 12 21.334Z" fill="#353653"/>
<path d="M12.1933 5.94598C11.4709 5.93404 10.7547 6.08137 10.0956 6.37749C9.43653 6.6736 8.85078 7.11125 8.37996 7.65932C8.31455 7.71994 8.26197 7.79306 8.22532 7.87436C8.18868 7.95567 8.16872 8.0435 8.16663 8.13265C8.16658 8.21491 8.18308 8.29633 8.21515 8.37208C8.24722 8.44782 8.29419 8.51635 8.35328 8.57357C8.41237 8.63079 8.48236 8.67555 8.5591 8.70517C8.63584 8.73479 8.71775 8.74867 8.79996 8.74598C8.97608 8.74162 9.14448 8.67283 9.27329 8.55265C9.6296 8.1351 10.0721 7.79971 10.5705 7.56954C11.0688 7.33937 11.6111 7.21989 12.16 7.21932C13.7333 7.21932 14.7133 8.23265 14.7133 9.49265V9.52598C14.7133 10.9993 13.54 11.8193 11.6866 11.9593C11.6116 11.9622 11.538 11.9809 11.4707 12.0142C11.4034 12.0475 11.3438 12.0947 11.296 12.1526C11.2482 12.2105 11.2131 12.2778 11.1931 12.3502C11.1731 12.4226 11.1686 12.4984 11.18 12.5727C11.18 12.5727 11.18 14.1193 11.18 14.406C11.1965 14.571 11.274 14.7239 11.3973 14.8349C11.5206 14.9458 11.6808 15.0068 11.8466 15.006H11.92C12.085 14.9894 12.2379 14.9119 12.3488 14.7886C12.4598 14.6654 12.5208 14.5052 12.52 14.3393V12.966C14.52 12.686 16.14 11.6327 16.14 9.44598V9.41265C16.12 7.41265 14.56 5.94598 12.1933 5.94598Z" fill="#353653"/>
<path d="M11.8534 18.2995C12.3136 18.2995 12.6867 17.9264 12.6867 17.4661C12.6867 17.0059 12.3136 16.6328 11.8534 16.6328C11.3931 16.6328 11.02 17.0059 11.02 17.4661C11.02 17.9264 11.3931 18.2995 11.8534 18.2995Z" fill="#353653"/>
</svg>
