<svg width="16" height="21" viewBox="0 0 16 21" fill="none" xmlns="http://www.w3.org/2000/svg">
<path d="M8.0002 3.10742C7.30764 3.10742 6.63063 3.31279 6.05478 3.69756C5.47894 4.08233 5.03012 4.62921 4.76509 5.26906C4.50005 5.9089 4.43071 6.61297 4.56582 7.29223C4.70093 7.97149 5.03443 8.59542 5.52415 9.08514C6.01387 9.57486 6.6378 9.90836 7.31706 10.0435C7.99632 10.1786 8.70039 10.1092 9.34023 9.84421C9.98008 9.57917 10.527 9.13036 10.9117 8.55451C11.2965 7.97866 11.5019 7.30165 11.5019 6.60909C11.5019 5.68039 11.1329 4.78973 10.4763 4.13304C9.81957 3.47635 8.9289 3.10742 8.0002 3.10742ZM8.0002 8.88853C7.54937 8.88853 7.10866 8.75485 6.73381 8.50438C6.35896 8.25391 6.0668 7.89791 5.89427 7.48139C5.72175 7.06488 5.67661 6.60656 5.76456 6.16439C5.85251 5.72222 6.06961 5.31606 6.38839 4.99728C6.70718 4.67849 7.11334 4.4614 7.55551 4.37344C7.99767 4.28549 8.456 4.33063 8.87251 4.50316C9.28902 4.67568 9.64502 4.96784 9.89549 5.3427C10.146 5.71755 10.2796 6.15826 10.2796 6.60909C10.278 7.21258 10.0372 7.79079 9.60986 8.21695C9.18255 8.64311 8.60369 8.88242 8.0002 8.88242V8.88853Z" fill="#999999"/>
<path d="M8.00016 0.222656C6.09667 0.224246 4.27115 0.97902 2.92232 2.32213C1.57349 3.66523 0.810956 5.48752 0.80127 7.39099C0.80127 10.2449 2.40238 12.6343 3.57571 14.376L3.7896 14.6938C4.957 16.3857 6.20934 18.0174 7.54183 19.5827L8.00627 20.1265L8.47071 19.5827C9.80303 18.0173 11.0554 16.3856 12.2229 14.6938L12.4368 14.3699C13.604 12.6282 15.2052 10.2449 15.2052 7.39099C15.1955 5.48646 14.4321 3.66325 13.0819 2.31997C11.7318 0.976692 9.90471 0.222632 8.00016 0.222656ZM11.4163 13.6671L11.1963 13.991C10.1452 15.5677 8.75183 17.3338 8.00016 18.2077C7.27905 17.3338 5.85516 15.5677 4.80405 13.991L4.59016 13.6671C3.50849 12.0538 2.02349 9.84766 2.02349 7.36654C2.02349 6.58168 2.17808 5.8045 2.47844 5.07937C2.77879 4.35425 3.21903 3.69539 3.77402 3.1404C4.329 2.58542 4.98786 2.14518 5.71299 1.84483C6.43811 1.54447 7.21529 1.38988 8.00016 1.38988C8.78503 1.38988 9.56221 1.54447 10.2873 1.84483C11.0125 2.14518 11.6713 2.58542 12.2263 3.1404C12.7813 3.69539 13.2215 4.35425 13.5219 5.07937C13.8222 5.8045 13.9768 6.58168 13.9768 7.36654C13.9768 9.8721 12.4979 12.0782 11.4163 13.6671Z" fill="#999999"/>
</svg>
