<svg width="152" height="31" viewBox="0 0 152 31" fill="none" xmlns="http://www.w3.org/2000/svg">
<path d="M12.08 30.28C8.69333 30.28 5.89333 29.4933 3.68 27.92C1.49333 26.32 0.306667 23.9867 0.12 20.92H9.56C9.69333 22.5467 10.4133 23.36 11.72 23.36C12.2 23.36 12.6 23.2533 12.92 23.04C13.2667 22.8 13.44 22.44 13.44 21.96C13.44 21.2933 13.08 20.76 12.36 20.36C11.64 19.9333 10.52 19.4533 9 18.92C7.18667 18.28 5.68 17.6533 4.48 17.04C3.30667 16.4267 2.29333 15.5333 1.44 14.36C0.586667 13.1867 0.173333 11.68 0.2 9.84C0.2 8 0.666667 6.44 1.6 5.16C2.56 3.85333 3.85333 2.86667 5.48 2.2C7.13333 1.53333 8.98667 1.2 11.04 1.2C14.5067 1.2 17.2533 2 19.28 3.6C21.3333 5.2 22.4133 7.45333 22.52 10.36H12.96C12.9333 9.56 12.7333 8.98667 12.36 8.64C11.9867 8.29333 11.5333 8.12 11 8.12C10.6267 8.12 10.32 8.25333 10.08 8.52C9.84 8.76 9.72 9.10667 9.72 9.56C9.72 10.2 10.0667 10.7333 10.76 11.16C11.48 11.56 12.6133 12.0533 14.16 12.64C15.9467 13.3067 17.4133 13.9467 18.56 14.56C19.7333 15.1733 20.7467 16.0267 21.6 17.12C22.4533 18.2133 22.88 19.5867 22.88 21.24C22.88 22.9733 22.4533 24.5333 21.6 25.92C20.7467 27.28 19.5067 28.3467 17.88 29.12C16.2533 29.8933 14.32 30.28 12.08 30.28ZM24.8 18.72C24.8 16.3467 25.2 14.2933 26 12.56C26.8267 10.8 27.9467 9.46667 29.36 8.56C30.7733 7.62667 32.36 7.16 34.12 7.16C35.5867 7.16 36.8533 7.46667 37.92 8.08C38.9867 8.66667 39.8 9.48 40.36 10.52V7.44H49.2V30H40.36V26.92C39.8 27.96 38.9867 28.7867 37.92 29.4C36.8533 29.9867 35.5867 30.28 34.12 30.28C32.36 30.28 30.7733 29.8267 29.36 28.92C27.9467 27.9867 26.8267 26.6533 26 24.92C25.2 23.16 24.8 21.0933 24.8 18.72ZM40.36 18.72C40.36 17.52 40.0533 16.5867 39.44 15.92C38.8267 15.2533 38.04 14.92 37.08 14.92C36.12 14.92 35.3333 15.2533 34.72 15.92C34.1067 16.5867 33.8 17.52 33.8 18.72C33.8 19.92 34.1067 20.8533 34.72 21.52C35.3333 22.1867 36.12 22.52 37.08 22.52C38.04 22.52 38.8267 22.1867 39.44 21.52C40.0533 20.8533 40.36 19.92 40.36 18.72ZM62.0675 10.52C62.6275 9.48 63.4275 8.66667 64.4675 8.08C65.5342 7.46667 66.8008 7.16 68.2675 7.16C70.0275 7.16 71.6142 7.62667 73.0275 8.56C74.4408 9.46667 75.5475 10.8 76.3475 12.56C77.1742 14.2933 77.5875 16.3467 77.5875 18.72C77.5875 21.0933 77.1742 23.16 76.3475 24.92C75.5475 26.6533 74.4408 27.9867 73.0275 28.92C71.6142 29.8267 70.0275 30.28 68.2675 30.28C66.8008 30.28 65.5342 29.9867 64.4675 29.4C63.4275 28.7867 62.6275 27.96 62.0675 26.92V30H53.1875V0.4H62.0675V10.52ZM68.5875 18.72C68.5875 17.52 68.2808 16.5867 67.6675 15.92C67.0542 15.2533 66.2675 14.92 65.3075 14.92C64.3475 14.92 63.5608 15.2533 62.9475 15.92C62.3342 16.5867 62.0275 17.52 62.0275 18.72C62.0275 19.92 62.3342 20.8533 62.9475 21.52C63.5608 22.1867 64.3475 22.52 65.3075 22.52C66.2675 22.52 67.0542 22.1867 67.6675 21.52C68.2808 20.8533 68.5875 19.92 68.5875 18.72ZM89.255 10.52C89.815 9.48 90.615 8.66667 91.655 8.08C92.7217 7.46667 93.9883 7.16 95.455 7.16C97.215 7.16 98.8017 7.62667 100.215 8.56C101.628 9.46667 102.735 10.8 103.535 12.56C104.362 14.2933 104.775 16.3467 104.775 18.72C104.775 21.0933 104.362 23.16 103.535 24.92C102.735 26.6533 101.628 27.9867 100.215 28.92C98.8017 29.8267 97.215 30.28 95.455 30.28C93.9883 30.28 92.7217 29.9867 91.655 29.4C90.615 28.7867 89.815 27.96 89.255 26.92V30H80.375V0.4H89.255V10.52ZM95.775 18.72C95.775 17.52 95.4683 16.5867 94.855 15.92C94.2417 15.2533 93.455 14.92 92.495 14.92C91.535 14.92 90.7483 15.2533 90.135 15.92C89.5217 16.5867 89.215 17.52 89.215 18.72C89.215 19.92 89.5217 20.8533 90.135 21.52C90.7483 22.1867 91.535 22.52 92.495 22.52C93.455 22.52 94.2417 22.1867 94.855 21.52C95.4683 20.8533 95.775 19.92 95.775 18.72ZM106.363 18.72C106.363 16.3467 106.763 14.2933 107.563 12.56C108.389 10.8 109.509 9.46667 110.923 8.56C112.336 7.62667 113.923 7.16 115.683 7.16C117.149 7.16 118.416 7.46667 119.483 8.08C120.549 8.66667 121.363 9.48 121.923 10.52V7.44H130.763V30H121.923V26.92C121.363 27.96 120.549 28.7867 119.483 29.4C118.416 29.9867 117.149 30.28 115.683 30.28C113.923 30.28 112.336 29.8267 110.923 28.92C109.509 27.9867 108.389 26.6533 107.563 24.92C106.763 23.16 106.363 21.0933 106.363 18.72ZM121.923 18.72C121.923 17.52 121.616 16.5867 121.003 15.92C120.389 15.2533 119.603 14.92 118.643 14.92C117.683 14.92 116.896 15.2533 116.283 15.92C115.669 16.5867 115.363 17.52 115.363 18.72C115.363 19.92 115.669 20.8533 116.283 21.52C116.896 22.1867 117.683 22.52 118.643 22.52C119.603 22.52 120.389 22.1867 121.003 21.52C121.616 20.8533 121.923 19.92 121.923 18.72ZM143.63 11.6C144.537 10.2933 145.643 9.25333 146.95 8.48C148.257 7.68 149.617 7.28 151.03 7.28V16.76H148.51C146.83 16.76 145.59 17.0533 144.79 17.64C144.017 18.2267 143.63 19.2667 143.63 20.76V30H134.75V7.44H143.63V11.6Z" fill="#353653"/>
</svg>
