<svg width="18" height="18" viewBox="0 0 18 18" fill="none" xmlns="http://www.w3.org/2000/svg">
<path d="M13.8001 6.0001C13.8001 6.23648 13.7535 6.47054 13.6631 6.68893C13.5726 6.90731 13.44 7.10574 13.2729 7.27289C13.1057 7.44004 12.9073 7.57262 12.6889 7.66308C12.4705 7.75354 12.2365 7.8001 12.0001 7.8001C11.7637 7.8001 11.5297 7.75354 11.3113 7.66308C11.0929 7.57262 10.8945 7.44004 10.7273 7.27289C10.5602 7.10574 10.4276 6.90731 10.3371 6.68893C10.2467 6.47054 10.2001 6.23648 10.2001 6.0001C10.2001 5.52271 10.3897 5.06487 10.7273 4.7273C11.0649 4.38974 11.5227 4.2001 12.0001 4.2001C12.4775 4.2001 12.9353 4.38974 13.2729 4.7273C13.6105 5.06487 13.8001 5.52271 13.8001 6.0001ZM12.6001 6.0001C12.6001 5.84097 12.5369 5.68836 12.4244 5.57583C12.3118 5.46331 12.1592 5.4001 12.0001 5.4001C11.841 5.4001 11.6884 5.46331 11.5758 5.57583C11.4633 5.68836 11.4001 5.84097 11.4001 6.0001C11.4001 6.15923 11.4633 6.31184 11.5758 6.42436C11.6884 6.53688 11.841 6.6001 12.0001 6.6001C12.1592 6.6001 12.3118 6.53688 12.4244 6.42436C12.5369 6.31184 12.6001 6.15923 12.6001 6.0001ZM0.600098 4.2001C0.600098 3.24532 0.979382 2.32964 1.65451 1.65451C2.32964 0.979382 3.24532 0.600098 4.2001 0.600098H13.8001C14.7549 0.600098 15.6706 0.979382 16.3457 1.65451C17.0208 2.32964 17.4001 3.24532 17.4001 4.2001V13.8001C17.4001 14.7549 17.0208 15.6706 16.3457 16.3457C15.6706 17.0208 14.7549 17.4001 13.8001 17.4001H4.2001C3.24532 17.4001 2.32964 17.0208 1.65451 16.3457C0.979382 15.6706 0.600098 14.7549 0.600098 13.8001V4.2001ZM4.2001 1.8001C3.56358 1.8001 2.95313 2.05295 2.50304 2.50304C2.05295 2.95313 1.8001 3.56358 1.8001 4.2001V13.8001C1.8001 14.2477 1.9225 14.6665 2.1361 15.0241L7.7389 9.5185C8.07548 9.18797 8.52836 9.00278 9.0001 9.00278C9.47183 9.00278 9.92472 9.18797 10.2613 9.5185L15.8653 15.0241C16.0852 14.6538 16.2009 14.2308 16.2001 13.8001V4.2001C16.2001 3.56358 15.9472 2.95313 15.4972 2.50304C15.0471 2.05295 14.4366 1.8001 13.8001 1.8001H4.2001ZM4.2001 16.2001H13.8001C14.2441 16.2001 14.6581 16.0801 15.0145 15.8713L9.4201 10.3753C9.30794 10.2654 9.15715 10.2038 9.0001 10.2038C8.84305 10.2038 8.69225 10.2654 8.5801 10.3753L2.9857 15.8713C3.35383 16.0875 3.77318 16.201 4.2001 16.2001Z" fill="#353653"/>
</svg>
