<svg width="20" height="24" viewBox="0 0 20 24" fill="none" xmlns="http://www.w3.org/2000/svg">
<path d="M14.9 7.0998C15.2713 7.0998 15.6274 6.95231 15.8899 6.68975C16.1525 6.4272 16.3 6.07111 16.3 5.69981C16.3 5.3285 16.1525 4.97241 15.8899 4.70986C15.6274 4.4473 15.2713 4.2998 14.9 4.2998C14.5287 4.2998 14.1726 4.4473 13.91 4.70986C13.6475 4.97241 13.5 5.3285 13.5 5.69981C13.5 6.07111 13.6475 6.4272 13.91 6.68975C14.1726 6.95231 14.5287 7.0998 14.9 7.0998ZM8.88979 1.6202C9.41477 1.09507 10.1268 0.799963 10.8694 0.799805H17.1022C17.8448 0.799805 18.557 1.0948 19.0821 1.61991C19.6072 2.14501 19.9022 2.8572 19.9022 3.5998V9.7234C19.9023 10.0936 19.829 10.4602 19.6865 10.802C19.544 11.1437 19.3351 11.4537 19.072 11.7142L10.9268 19.7782C10.4007 20.2982 9.6902 20.5889 8.95048 20.5868C8.21076 20.5847 7.50192 20.29 6.97879 19.767L0.839791 13.6294C0.314872 13.1043 0.0199892 12.3923 0.0199892 11.6498C0.0199892 10.9073 0.314872 10.1953 0.839791 9.67021L8.88979 1.6202ZM10.8694 2.1998C10.4981 2.19988 10.1421 2.34744 9.87959 2.61L1.82959 10.66C1.56713 10.9225 1.41969 11.2786 1.41969 11.6498C1.41969 12.021 1.56713 12.3771 1.82959 12.6396L7.96719 18.7772C8.22876 19.0387 8.58318 19.1861 8.95304 19.1871C9.3229 19.1882 9.67814 19.0428 9.94119 18.7828L18.0878 10.7188C18.2191 10.5887 18.3233 10.4338 18.3944 10.2632C18.4655 10.0926 18.5022 9.90964 18.5022 9.7248V3.5998C18.5022 3.2285 18.3547 2.87241 18.0921 2.60986C17.8296 2.3473 17.4735 2.1998 17.1022 2.1998H10.8694ZM0.195791 14.5198C0.00801259 15.0229 -0.0311171 15.5695 0.0830667 16.0942C0.197251 16.619 0.459931 17.0998 0.839791 17.4794L5.00759 21.6472C6.05435 22.6937 7.47282 23.2832 8.95295 23.2868C10.4331 23.2905 11.8545 22.7081 12.9064 21.6668L19.072 15.5628C19.3348 15.3027 19.5435 14.9931 19.6859 14.6518C19.8284 14.3106 19.9019 13.9446 19.9022 13.5748V12.7726L12.9064 19.7068C12.8394 19.7738 12.7708 19.8392 12.7006 19.9028L11.9222 20.6728C11.1333 21.4541 10.0672 21.8912 8.9569 21.8885C7.84664 21.8859 6.78258 21.4438 5.99739 20.6588L5.29879 19.9588C5.19857 19.8717 5.10145 19.7811 5.00759 19.6872L0.839791 15.5194C0.55576 15.2364 0.336101 14.8954 0.195791 14.5198Z" fill="#353653"/>
</svg>
