<svg width="20" height="20" viewBox="0 0 20 20" fill="none" xmlns="http://www.w3.org/2000/svg">
<path d="M8.125 0.25C3.77575 0.25 0.25 3.77575 0.25 8.125C0.25 12.4742 3.77575 16 8.125 16C10.03 16 11.776 15.3242 13.138 14.1985L18.4698 19.531C18.6105 19.6716 18.8013 19.7506 19.0003 19.7505C19.1992 19.7505 19.39 19.6714 19.5306 19.5306C19.6713 19.3899 19.7502 19.1991 19.7502 19.0001C19.7501 18.8012 19.671 18.6104 19.5303 18.4697L14.1985 13.1373C15.3653 11.7278 16.0026 9.95475 16 8.125C16 3.77575 12.4743 0.25 8.125 0.25ZM1.75 8.125C1.75 6.43425 2.42165 4.81274 3.61719 3.61719C4.81274 2.42165 6.43425 1.75 8.125 1.75C9.81576 1.75 11.4373 2.42165 12.6328 3.61719C13.8284 4.81274 14.5 6.43425 14.5 8.125C14.5 9.81575 13.8284 11.4373 12.6328 12.6328C11.4373 13.8284 9.81576 14.5 8.125 14.5C6.43425 14.5 4.81274 13.8284 3.61719 12.6328C2.42165 11.4373 1.75 9.81575 1.75 8.125Z" fill="#353653"/>
</svg>
