<svg width="20" height="20" viewBox="0 0 20 20" fill="none" xmlns="http://www.w3.org/2000/svg">
<path d="M6.2825 18.1818C13.83 18.1818 17.9587 12.1816 17.9587 6.98737C17.9587 6.81947 17.9587 6.64917 17.9513 6.48126C18.7551 5.92296 19.4488 5.23175 20 4.44002C19.2491 4.75766 18.4535 4.96701 17.6388 5.06127C18.4969 4.56911 19.1397 3.79475 19.4475 2.88211C18.6412 3.3404 17.7588 3.66211 16.8387 3.83317C16.2202 3.20116 15.4018 2.78247 14.5101 2.64195C13.6185 2.50144 12.7034 2.64695 11.9067 3.05593C11.1099 3.46492 10.476 4.11456 10.1031 4.90423C9.73012 5.6939 9.63897 6.57952 9.84375 7.42392C8.21218 7.34543 6.61602 6.93876 5.1588 6.23029C3.70159 5.52183 2.41586 4.52739 1.385 3.31146C0.861675 4.17867 0.701967 5.20447 0.938308 6.18055C1.17465 7.15663 1.78932 8.00983 2.6575 8.56687C2.00692 8.54567 1.37065 8.37805 0.8 8.07755V8.13152C0.801122 9.03998 1.12913 9.92021 1.72859 10.6234C2.32805 11.3266 3.16218 11.8097 4.09 11.9909C3.73783 12.084 3.37404 12.1304 3.00875 12.1288C2.75123 12.1296 2.49423 12.1067 2.24125 12.0605C2.50348 12.8425 3.01409 13.5263 3.70156 14.0159C4.38903 14.5056 5.21892 14.7768 6.075 14.7913C4.62069 15.8873 2.82425 16.4817 0.975 16.4788C0.649151 16.4801 0.323529 16.4621 0 16.4248C1.87689 17.5729 4.05662 18.1825 6.2825 18.1818Z" fill="#999999"/>
</svg>
