<svg width="22" height="24" viewBox="0 0 22 24" fill="none" xmlns="http://www.w3.org/2000/svg">
<path d="M1.6665 22.6668V21.3335C1.6665 18.8581 2.64983 16.4842 4.40017 14.7338C6.15051 12.9835 8.52448 12.0002 10.9998 12.0002V12.0002C13.4752 12.0002 15.8492 12.9835 17.5995 14.7338C19.3498 16.4842 20.3332 18.8581 20.3332 21.3335V22.6668H1.6665ZM10.9998 12.0002C12.4143 12.0002 13.7709 11.4383 14.7711 10.4381C15.7713 9.43787 16.3332 8.08132 16.3332 6.66683C16.3332 5.25234 15.7713 3.89579 14.7711 2.89559C13.7709 1.8954 12.4143 1.3335 10.9998 1.3335C9.58535 1.3335 8.2288 1.8954 7.2286 2.89559C6.22841 3.89579 5.6665 5.25234 5.6665 6.66683C5.6665 8.08132 6.22841 9.43787 7.2286 10.4381C8.2288 11.4383 9.58535 12.0002 10.9998 12.0002V12.0002Z" stroke="#353653" stroke-width="1.5" stroke-linecap="round" stroke-linejoin="round"/>
</svg>
